<svg width="66" height="64" viewBox="0 0 66 64" fill="none" xmlns="http://www.w3.org/2000/svg">
<path d="M54.3322 0H10.8155C4.84228 0 0 4.84228 0 10.8155V52.7035C0 58.6767 4.84228 63.519 10.8155 63.519H54.3322C60.3054 63.519 65.1477 58.6767 65.1477 52.7035V10.8155C65.1477 4.84228 60.3054 0 54.3322 0Z" fill="#330000"/>
<path d="M31.5697 38.119H21.4743L19.4201 44.4997C19.3922 44.6161 19.3245 44.7191 19.2287 44.7909C19.133 44.8627 19.0152 44.8989 18.8956 44.8931H13.7823C13.4908 44.8931 13.3889 44.7328 13.4764 44.4122L22.2171 19.2392C22.3045 18.9771 22.3919 18.6785 22.4793 18.3434C22.5938 17.7601 22.6523 17.1677 22.6541 16.5735C22.6481 16.5319 22.652 16.4895 22.6652 16.4497C22.6785 16.4099 22.7008 16.3736 22.7305 16.3439C22.7602 16.3142 22.7964 16.2919 22.8362 16.2786C22.876 16.2653 22.9184 16.2614 22.96 16.2673H29.9089C30.1125 16.2673 30.229 16.3403 30.2586 16.4862L40.1791 44.4559C40.2664 44.7477 40.1791 44.8935 39.917 44.8931H34.2354C34.1378 44.9038 34.0397 44.8786 33.9594 44.8224C33.879 44.7661 33.8218 44.6825 33.7984 44.5872L31.5697 38.119ZM23.0475 32.6125H29.9527L29.8542 32.2876L29.6962 31.773L29.5834 31.4116L29.4035 30.8426L29.021 29.6447L27.8109 25.8166C27.5935 25.1289 27.3848 24.4385 27.1849 23.7456L27.0251 23.1832L26.8383 22.5182L26.5533 21.4875L26.4998 21.2934H26.4563C26.2376 22.3424 25.9713 23.3809 25.6583 24.4057L25.0098 26.4914L24.293 28.8103C24.228 29.021 24.1631 29.2293 24.0983 29.4353L23.9049 30.0456L23.7125 30.6416L23.5211 31.2228L23.3308 31.7895C23.2677 31.9762 23.2046 32.1602 23.1417 32.3418L23.0475 32.6125ZM46.0785 20.8999C45.6328 20.9178 45.1883 20.8414 44.7741 20.6757C44.3599 20.51 43.9854 20.2588 43.6749 19.9385C43.3655 19.6041 43.1251 19.2119 42.9676 18.7845C42.8101 18.357 42.7385 17.9026 42.757 17.4474C42.7411 16.9967 42.8205 16.5478 42.99 16.1299C43.1594 15.712 43.4151 15.3345 43.7403 15.0221C44.3676 14.4199 45.2031 14.0829 46.0727 14.0813L46.1658 14.0823C47.2148 14.0823 48.0379 14.3955 48.6353 15.0219C48.9367 15.3474 49.171 15.7292 49.3247 16.1454C49.4784 16.5616 49.5486 17.004 49.5311 17.4474C49.5496 17.9044 49.4759 18.3605 49.3145 18.7886C49.1531 19.2166 48.9072 19.6077 48.5915 19.9388C48.2729 20.2528 47.8947 20.4998 47.4792 20.6655C47.0636 20.8311 46.6192 20.912 46.1719 20.9032L46.0785 20.8999ZM43.0629 44.4559V23.5659C43.0627 23.3036 43.1793 23.1725 43.4125 23.1725H48.7882C49.0212 23.1725 49.1377 23.3036 49.1379 23.5659V44.4559C49.1379 44.7477 49.0214 44.8935 48.7882 44.8931H43.4563C43.2079 44.8931 43.0772 44.7623 43.0642 44.5007L43.0629 44.4559Z" fill="#FF9A00"/>
</svg>
