<svg width="66" height="74" viewBox="0 0 66 74" fill="none" xmlns="http://www.w3.org/2000/svg">
<path d="M5.92863 66.4987L0 0H65.1477L59.2132 66.4886L32.5343 73.885L5.92863 66.4987Z" fill="#1572B6"/>
<path d="M32.5744 68.2317L54.1325 62.2548L59.2043 5.43684H32.5744V68.2317Z" fill="#33A9DC"/>
<path d="M32.5744 29.5293H43.3667L44.1121 21.1777H32.5744V13.0219H53.0257L50.825 37.6852H32.5744V29.5293Z" fill="white"/>
<path d="M32.6228 50.7106L32.5868 50.7212L23.504 48.2687L22.9232 41.764H14.7373L15.8795 54.5701L32.5856 59.2067L32.6228 59.1961V50.7106Z" fill="#EBEBEB"/>
<path d="M42.6733 37.3402L41.6909 48.2623L32.5945 50.7177V59.2032L49.3142 54.5695L50.8557 37.3402H42.6733Z" fill="white"/>
<path d="M32.6022 13.0219V21.1777H12.9022L12.1721 13.0219H32.6022ZM32.5744 29.5305V37.6864H23.606L23.0706 31.7188L22.876 29.5305H32.5744Z" fill="#EBEBEB"/>
</svg>
