<svg width="52" height="66" viewBox="0 0 52 66" fill="none" xmlns="http://www.w3.org/2000/svg">
<path d="M23.1817 0H33.9447V49.3195C29.351 50.2663 24.6743 50.7528 19.9841 50.7718C6.84051 50.7582 0 44.8868 0 33.6108C0 22.7528 7.25583 15.6952 18.5019 15.6952C20.0791 15.6661 21.6531 15.8487 23.1817 16.2381V0ZM23.1817 24.8158C22.0115 24.4303 20.7843 24.2467 19.5525 24.273C14.1235 24.273 10.9665 27.5928 10.9665 33.4099C10.9665 39.0751 13.9715 42.2021 19.4846 42.2021C20.7221 42.2054 21.958 42.1147 23.1817 41.9307V24.8158Z" fill="#44B78B"/>
<path d="M51.0459 16.4471V41.1489C51.0459 49.6534 50.408 53.7414 48.5405 57.2675C46.6337 60.8523 43.5173 63.6445 39.7455 65.1477L29.7616 60.4435C33.3898 59.2033 36.4282 56.6602 38.2878 53.3071C39.8242 50.2642 40.3101 46.738 40.3101 37.4626V16.4471H51.0459ZM40.2993 0.0542898H51.0595V10.9882H40.2993V0.0542898Z" fill="#44B78B"/>
</svg>
