<svg width="66" height="46" viewBox="0 0 66 46" fill="none" xmlns="http://www.w3.org/2000/svg">
<path d="M64.5288 17.2532C64.3334 17.1258 62.7047 15.8844 59.1867 15.8844C58.2746 15.8844 57.3626 15.9799 56.4505 16.139C55.7664 11.6825 51.9553 9.42239 51.7924 9.3269L50.8478 8.78575L50.2615 9.64522C49.4797 10.7912 48.8608 12.0963 48.6002 13.4333C47.9487 15.9799 48.3396 18.3991 49.6751 20.4682C48.079 21.3595 45.4731 21.5824 44.9193 21.5824H2.01958C0.912067 21.5824 0 22.4737 0 23.5878C0 27.2485 0.586329 30.9093 1.88928 34.3472C3.35511 38.1352 5.57013 40.9365 8.40405 42.6554C11.5963 44.5654 16.8407 45.6477 22.8017 45.6477C25.375 45.6477 28.0461 45.4249 30.6846 44.9474C34.3328 44.3107 37.8508 43.0693 41.0756 41.2548C43.7464 39.7623 46.1369 37.8353 48.1442 35.5568C51.5644 31.8324 53.584 27.5987 55.0498 23.938H55.6687C59.3821 23.938 61.6949 22.4737 62.9653 21.2322C63.8122 20.4682 64.4311 19.5451 64.8871 18.4628L65.1477 17.6988L64.5288 17.2532ZM6.02616 20.4046H11.7592C12.0198 20.4046 12.2803 20.1817 12.2803 19.8953V14.8657C12.2803 14.6111 12.0523 14.3564 11.7592 14.3564H6.02616C5.733 14.3564 5.50498 14.5792 5.50498 14.8657V19.8953C5.53755 20.1817 5.733 20.4046 6.02616 20.4046ZM13.9416 20.4046H19.6746C19.9352 20.4046 20.1958 20.1817 20.1958 19.8953V14.8657C20.1958 14.6111 19.9678 14.3564 19.6746 14.3564H13.9416C13.6484 14.3564 13.4204 14.5792 13.4204 14.8657V19.8953C13.453 20.1817 13.6484 20.4046 13.9416 20.4046ZM21.9873 20.4046H27.6878C28.0135 20.4046 28.2415 20.1817 28.2415 19.8953V14.8657C28.2415 14.6111 28.0461 14.3564 27.6878 14.3564H21.9873C21.7268 14.3564 21.4987 14.5792 21.4987 14.8657V19.8953C21.4987 20.1817 21.6942 20.4046 21.9873 20.4046ZM29.9354 20.4046H35.7009C35.9615 20.4046 36.1895 20.1817 36.1895 19.8953V14.8657C36.1895 14.6111 35.9941 14.3564 35.7009 14.3564H29.9354C29.6748 14.3564 29.4468 14.5792 29.4468 14.8657V19.8953C29.4468 20.1817 29.6748 20.4046 29.9354 20.4046ZM13.9416 13.2741H19.6746C19.9352 13.2741 20.1958 12.9876 20.1958 12.7011V7.70344C20.1958 7.41695 19.9678 7.19413 19.6746 7.19413H13.9416C13.6484 7.19413 13.4204 7.38512 13.4204 7.70344V12.7011C13.453 12.9876 13.6484 13.2741 13.9416 13.2741ZM21.9873 13.2741H27.6878C28.0135 13.2741 28.2415 12.9876 28.2415 12.7011V7.70344C28.2415 7.41695 28.0461 7.19413 27.6878 7.19413H21.9873C21.7268 7.19413 21.4987 7.38512 21.4987 7.70344V12.7011C21.4987 12.9876 21.6942 13.2741 21.9873 13.2741ZM29.9354 13.2741H35.7009C35.9615 13.2741 36.1895 12.9876 36.1895 12.7011V7.70344C36.1895 7.41695 35.9615 7.19413 35.7009 7.19413H29.9354C29.6748 7.19413 29.4468 7.38512 29.4468 7.70344V12.7011C29.4468 12.9876 29.6748 13.2741 29.9354 13.2741ZM29.9354 6.01632H35.7009C35.9615 6.01632 36.1895 5.7935 36.1895 5.50701V0.541151C36.1895 0.222827 35.9615 0 35.7009 0H29.9354C29.6748 0 29.4468 0.190995 29.4468 0.541151V5.50701C29.4468 5.76167 29.6748 6.01632 29.9354 6.01632ZM37.9485 20.4046H43.6815C43.9747 20.4046 44.2027 20.1817 44.2027 19.8953V14.8657C44.2027 14.6111 43.9747 14.3564 43.6815 14.3564H37.9485C37.6879 14.3564 37.4599 14.5792 37.4599 14.8657V19.8953C37.4599 20.1817 37.6879 20.4046 37.9485 20.4046Z" fill="#0288D1"/>
</svg>
