<svg width="44" height="66" viewBox="0 0 44 66" fill="none" xmlns="http://www.w3.org/2000/svg">
<path d="M10.8579 65.1477C16.8677 65.1477 21.7159 60.2995 21.7159 54.2897V43.4318H10.8579C4.8482 43.4318 0 48.28 0 54.2897C0 60.2995 4.8482 65.1477 10.8579 65.1477Z" fill="#0ACF83"/>
<path d="M0 32.5738C0 26.5641 4.8482 21.7159 10.8579 21.7159H21.7159V43.4318H10.8579C4.8482 43.4318 0 38.5836 0 32.5738Z" fill="#A259FF"/>
<path d="M0 10.8579C0 4.8482 4.8482 0 10.8579 0H21.7159V21.7159H10.8579C4.8482 21.7159 0 16.8677 0 10.8579Z" fill="#F24E1E"/>
<path d="M21.7159 0H32.5738C38.5836 0 43.4318 4.8482 43.4318 10.8579C43.4318 16.8677 38.5836 21.7159 32.5738 21.7159H21.7159V0Z" fill="#FF7262"/>
<path d="M43.4318 32.5738C43.4318 38.5836 38.5836 43.4318 32.5738 43.4318C26.5641 43.4318 21.7159 38.5836 21.7159 32.5738C21.7159 26.5641 26.5641 21.7159 32.5738 21.7159C38.5836 21.7159 43.4318 26.5641 43.4318 32.5738Z" fill="#1ABCFE"/>
</svg>
