<svg width="49" height="67" viewBox="0 0 49 67" fill="none" xmlns="http://www.w3.org/2000/svg">
<path d="M0.0263672 53.8539L8.24209 1.28267C8.2913 0.968489 8.43797 0.677708 8.66138 0.451396C8.8848 0.225084 9.17366 0.0746807 9.48718 0.0214285C9.8007 -0.0318238 10.123 0.0147669 10.4086 0.15462C10.6942 0.294473 10.9287 0.52052 11.0789 0.800833L19.5757 16.6482L22.9621 10.1998C23.0909 9.95517 23.284 9.75039 23.5206 9.60753C23.7573 9.46467 24.0284 9.38917 24.3049 9.38917C24.5813 9.38917 24.8525 9.46467 25.0891 9.60753C25.3258 9.75039 25.5189 9.95517 25.6477 10.1998L48.5766 53.8539H0.0263672Z" fill="#FFA000"/>
<path d="M28.4093 33.3756L19.5715 16.6406L0.0263672 53.8541L28.4093 33.3756Z" fill="#F57C00"/>
<path d="M48.5766 53.8541L42.284 14.915C42.2375 14.6406 42.1164 14.3842 41.9339 14.1739C41.7515 13.9636 41.5147 13.8076 41.2495 13.723C40.9843 13.6385 40.7011 13.6286 40.4307 13.6942C40.1603 13.7599 39.9132 13.8986 39.7163 14.0953L0.0263672 53.8536L21.988 66.1696C22.6662 66.5482 23.4301 66.747 24.2068 66.747C24.9836 66.747 25.7474 66.5482 26.4257 66.1696L48.5766 53.8541Z" fill="#FFCA28"/>
<path d="M42.2843 14.915C42.2378 14.6405 42.1166 14.3841 41.9342 14.1738C41.7517 13.9636 41.5149 13.8076 41.2497 13.7229C40.9846 13.6384 40.7014 13.6283 40.431 13.6939C40.1606 13.7595 39.9135 13.8981 39.7166 14.0947L31.8387 21.9934L25.6442 10.1998C25.5155 9.95525 25.3223 9.75046 25.0857 9.60761C24.849 9.46475 24.5779 9.38924 24.3015 9.38924C24.025 9.38924 23.7539 9.46475 23.5172 9.60761C23.2806 9.75046 23.0874 9.95525 22.9587 10.1998L19.5723 16.6478L11.0755 0.800909C10.9251 0.52021 10.6902 0.293928 10.4041 0.154106C10.118 0.0142852 9.79519 -0.0319892 9.48133 0.0218362C9.16769 0.0756467 8.8789 0.226698 8.6558 0.453628C8.43271 0.680558 8.28661 0.971881 8.23815 1.2864L0.0265952 53.854H0L0.026073 53.8843L0.242483 53.9906L39.7051 14.4821C39.9019 14.2845 40.1494 14.1449 40.4203 14.0787C40.6913 14.0125 40.9753 14.0222 41.241 14.1069C41.5068 14.1916 41.7441 14.3478 41.9269 14.5586C42.1096 14.7693 42.2308 15.0263 42.277 15.3014L48.5163 53.8916L48.5768 53.8535L42.2843 14.915ZM0.098557 53.7821L8.2418 1.6582C8.29019 1.34352 8.43632 1.05203 8.65953 0.824987C8.88273 0.597947 9.17169 0.446863 9.4855 0.393121C9.79942 0.339342 10.1223 0.385694 10.4084 0.525612C10.6945 0.665529 10.9293 0.89192 11.0796 1.17272L19.5754 17.0201L22.9623 10.5717C23.0911 10.3271 23.2842 10.1223 23.5209 9.97941C23.7575 9.83656 24.0287 9.76105 24.3051 9.76105C24.5815 9.76105 24.8527 9.83656 25.0893 9.97941C25.326 10.1223 25.5191 10.3271 25.6479 10.5717L31.7167 22.1143L0.0975147 53.7821H0.098557Z" fill="white" fill-opacity="0.2"/>
<path opacity="0.2" d="M26.4257 65.7979C25.7475 66.1765 24.9837 66.3753 24.2069 66.3753C23.4301 66.3753 22.6663 66.1765 21.9881 65.7979L0.07858 53.5174L0.0253906 53.8548L21.987 66.1666C22.6653 66.5452 23.4291 66.744 24.2059 66.744C24.9826 66.744 25.7465 66.5452 26.4247 66.1666L48.5767 53.8548L48.5193 53.5054L26.4247 65.799L26.4257 65.7979Z" fill="#A52714"/>
</svg>
