<svg width="66" height="66" viewBox="0 0 66 66" fill="none" xmlns="http://www.w3.org/2000/svg">
<path fill-rule="evenodd" clip-rule="evenodd" d="M32.5927 0C24.8228 0.00438795 17.3185 2.82834 11.4733 7.94747C5.54735 13.1436 1.63567 20.2568 0.42176 28.0441C-0.818985 35.8643 0.697461 43.8726 4.71144 50.6977C8.66777 57.4409 14.9069 62.5454 22.3001 65.0878C23.9417 65.3972 24.5247 64.3615 24.5247 63.4788C24.5247 62.6808 24.4922 60.0522 24.4791 57.2641C15.4242 59.2835 13.5155 53.3229 13.5155 53.3229C12.9294 51.3164 11.6476 49.5843 9.90009 48.4372C6.94585 46.3624 10.1281 46.4145 10.1281 46.4145C11.1606 46.5578 12.1475 46.9454 13.0107 47.5415C13.8771 48.1376 14.5969 48.929 15.1181 49.8541C15.5578 50.6781 16.1538 51.4045 16.8704 51.9875C17.9376 52.8702 19.2497 53.4046 20.6299 53.5187C22.0101 53.6329 23.3922 53.3213 24.5899 52.6259C24.7365 50.9322 25.4693 49.3492 26.6582 48.1636C19.4305 47.32 11.8251 44.457 11.8251 31.6498C11.7747 28.3474 12.9742 25.148 15.1832 22.6926C14.1865 19.8104 14.298 16.6605 15.4959 13.856C15.4959 13.856 18.2286 12.9602 24.4498 17.276C29.7798 15.7802 35.4187 15.7802 40.7486 17.276C46.9568 12.9602 49.6733 13.856 49.6733 13.856C50.8784 16.6506 50.9957 19.81 50.0022 22.6926C52.2089 25.149 53.406 28.3483 53.3538 31.6498C53.3538 44.4798 45.7354 47.3005 38.4882 48.1245C39.2703 48.9412 39.8716 49.9135 40.2527 50.9782C40.6337 52.0428 40.7861 53.1759 40.6998 54.3034C40.6998 58.7722 40.6607 62.3713 40.6607 63.469C40.6607 64.3549 41.247 65.3972 42.8984 65.0715C50.2786 62.5186 56.503 57.4113 60.4479 50.6716C64.4547 43.8522 65.9665 35.8521 64.7246 28.0409C63.5097 20.2607 59.6018 13.154 53.6828 7.96049C47.848 2.84403 40.3564 0.0158744 32.596 0H32.5927Z" fill="black"/>
</svg>
