<svg width="66" height="75" viewBox="0 0 66 75" fill="none" xmlns="http://www.w3.org/2000/svg">
<path d="M5.92879 66.7816L0 0H65.1454L59.2087 66.771L32.5331 74.1988L5.92879 66.7816Z" fill="#E44F26"/>
<path d="M32.5727 68.5226L54.1295 62.5204L59.2008 5.46156H32.5727V68.5226Z" fill="#F1662A"/>
<path d="M32.5727 30.2281H21.7811L21.037 21.8409H32.5727V13.6499H12.1241L14.322 38.4191H32.5727V30.2281ZM32.5727 51.4993L32.5358 51.5099L23.4539 49.0481L22.8735 42.5159H14.6861L15.8286 55.3735L32.5358 60.0321L32.5727 60.0215V51.4993Z" fill="#EBEBEB"/>
<path d="M32.5437 30.2281V38.4191H42.5859L41.6414 49.0428L32.5437 51.5072V60.0295L49.2641 55.3735L49.3855 53.9902L51.301 32.4275L51.5016 30.2281H32.5437ZM32.5437 13.6499V21.8409H52.243L52.9739 13.6499H32.5437Z" fill="white"/>
</svg>
