<svg width="66" height="66" viewBox="0 0 66 66" fill="none" xmlns="http://www.w3.org/2000/svg">
<path d="M0 0H65.1454V65.1454H0V0Z" fill="#F7DF1E"/>
<path d="M17.1292 54.4402L22.1143 51.4232C23.0762 53.1284 23.9511 54.5713 26.0498 54.5713C28.0614 54.5713 29.33 53.7844 29.33 50.7236V29.9081H35.4518V50.8101C35.4518 57.1509 31.735 60.0371 26.3121 60.0371C21.4148 60.0371 18.572 57.5008 17.1289 54.4397M38.7771 53.7842L43.7617 50.8982C45.074 53.0411 46.7795 54.6153 49.7966 54.6153C52.3334 54.6153 53.9509 53.347 53.9509 51.5977C53.9509 49.4988 52.2891 48.7552 49.4904 47.5312L47.9603 46.8747C43.5434 44.9949 40.6136 42.6334 40.6136 37.6482C40.6136 33.0565 44.1119 29.558 49.5782 29.558C53.4701 29.558 56.2689 30.9138 58.2802 34.4558L53.5134 37.5172C52.4637 35.6368 51.3272 34.8935 49.578 34.8935C47.7849 34.8935 46.6479 36.0305 46.6479 37.5172C46.6479 39.3537 47.7849 40.0975 50.4086 41.2345L51.939 41.8903C57.143 44.1208 60.0727 46.3945 60.0727 51.5104C60.0727 57.0208 55.7436 60.0379 49.9276 60.0379C44.2429 60.0379 40.5696 57.3267 38.7768 53.7844" fill="black"/>
</svg>
