<svg width="58" height="28" viewBox="0 0 58 28" fill="none" xmlns="http://www.w3.org/2000/svg">
<path d="M0 27.1254L4.61709 0.192378L12.2738 0L17.1217 27.1254H11.158L9.73436 15.5827H7.11801L5.77136 27.1254H0ZM7.27191 14.4284H9.61893L8.61856 4.65556H8.23381L7.27191 14.4284Z" fill="#D8D8D8"/>
<path d="M18.1341 20.8923V14.1206C18.1341 9.77284 20.7504 7.11801 24.9443 7.11801C28.9842 7.11801 31.6391 9.58046 31.6391 13.2357V17.8912H23.9055V21.0847C23.9055 22.6622 24.3287 23.2778 25.4445 23.2778C26.4448 23.2778 26.7911 22.6622 26.9835 20.546L31.6006 20.6999C31.6391 20.9308 31.6391 21.2001 31.6391 21.431C31.6391 25.6633 29.1382 27.8949 25.1367 27.8949C20.8274 27.8949 18.1341 25.2016 18.1341 20.8923ZM23.9055 13.9282V17.1217H26.9835V14.0821C26.9835 12.3892 26.5218 11.7351 25.406 11.7351C24.3287 11.7351 23.9055 12.3507 23.9055 13.9282Z" fill="#D8D8D8"/>
<path d="M40.1545 0.192378V13.3511L43.3095 0.192378H49.2733L45.2718 13.4665H41.1164V13.8513L43.1556 13.8897C45.0794 13.9282 46.2722 15.044 46.7339 16.7369L49.658 27.1254H43.6943L40.1545 13.9282V27.1254H34.1908V0L40.1545 0.192378Z" fill="#D8D8D8"/>
<path d="M54.7041 27.8949C52.8957 27.8949 51.3952 26.4328 51.3952 24.6245C51.3952 22.8546 52.8957 21.354 54.7041 21.354C56.474 21.354 57.936 22.8546 57.936 24.6245C57.936 26.4328 56.474 27.8949 54.7041 27.8949Z" fill="#93A2A3"/>
</svg>
