<svg width="66" height="66" viewBox="0 0 66 66" fill="none" xmlns="http://www.w3.org/2000/svg">
<path d="M32.5727 65.1454C50.5621 65.1454 65.1454 50.5621 65.1454 32.5727C65.1454 14.5833 50.5621 0 32.5727 0C14.5833 0 0 14.5833 0 32.5727C0 50.5621 14.5833 65.1454 32.5727 65.1454Z" fill="white"/>
<path d="M32.5727 65.1454C50.5621 65.1454 65.1454 50.5621 65.1454 32.5727C65.1454 14.5833 50.5621 0 32.5727 0C14.5833 0 0 14.5833 0 32.5727C0 50.5621 14.5833 65.1454 32.5727 65.1454Z" fill="black"/>
<path d="M54.1099 57.0094L25.0237 19.5436H19.5436V45.5908H23.9277V25.1115L50.6684 59.6605C51.8733 58.8543 53.023 57.9687 54.1099 57.0094Z" fill="url(#paint0_linear_612_519)"/>
<path d="M41.6208 19.5436H45.9639V45.6018H41.6208V19.5436Z" fill="url(#paint1_linear_612_519)"/>
<defs>
<linearGradient id="paint0_linear_612_519" x1="3624.23" y1="3673.22" x2="5421.92" y2="6259.17" gradientUnits="userSpaceOnUse">
<stop stop-color="white"/>
<stop offset="1" stop-color="white" stop-opacity="0"/>
</linearGradient>
<linearGradient id="paint1_linear_612_519" x1="258.776" y1="19.5436" x2="251.428" y2="1933.18" gradientUnits="userSpaceOnUse">
<stop stop-color="white"/>
<stop offset="1" stop-color="white" stop-opacity="0"/>
</linearGradient>
</defs>
</svg>
