<svg width="64" height="66" viewBox="0 0 64 66" fill="none" xmlns="http://www.w3.org/2000/svg">
<path d="M47.2982 47.5228C47.7156 44.0488 47.5906 43.5388 50.1782 44.1019L50.835 44.1594C52.8248 44.2498 55.4278 43.8393 56.9572 43.1288C60.2494 41.601 62.2009 39.0512 58.9556 39.7207C51.5512 41.2485 51.0423 38.7412 51.0423 38.7412C58.8609 27.1407 62.1292 12.4145 59.3076 8.80962C51.6129 -1.02223 38.2938 3.62701 38.0709 3.74719L37.9997 3.76048C36.5368 3.45685 34.8995 3.27551 33.0601 3.24573C29.7094 3.19043 27.1671 4.12421 25.2383 5.58657C25.2383 5.58657 1.47738 -4.20273 2.58292 17.8975C2.81797 22.5989 9.32148 53.4717 17.0789 44.1466C19.9143 40.7369 22.6539 37.8537 22.6539 37.8537C24.0142 38.7572 25.6435 39.2187 27.3516 39.0528L27.484 38.9401C27.4425 39.3634 27.4606 39.7776 27.5366 40.2679C25.5388 42.5008 26.1259 42.8927 22.1307 43.7148C18.0882 44.5476 20.4631 46.0307 22.0132 46.4183C23.893 46.8884 28.2412 47.5542 31.1798 43.4415L31.0628 43.9105C31.8466 44.538 31.794 48.4183 31.9046 51.1904C32.0157 53.963 32.2013 56.5501 32.7666 58.0757C33.3318 59.6014 33.9987 63.5295 39.2493 62.4043C43.6375 61.4663 46.9924 60.1129 47.2982 47.5228Z" fill="black"/>
<path d="M37.5397 65.1477C35.2175 65.1477 33.7051 64.2495 32.7868 63.3822C31.4005 62.0741 30.8506 60.3889 30.522 59.3823L30.38 58.9622C29.7185 57.1765 29.4941 54.6054 29.3611 51.2946C29.3409 50.7974 29.3271 50.2853 29.3117 49.7424C29.3005 49.3452 29.2867 48.8469 29.2665 48.3258C28.4298 48.7247 27.5418 49.0053 26.6278 49.1596C24.9905 49.4393 23.2304 49.3489 21.3953 48.89C20.1004 48.5661 18.755 47.895 17.9882 46.8586C15.7532 48.8161 13.6213 48.5507 12.46 48.1631C10.4111 47.4797 8.57754 45.5595 6.85408 42.2939C5.62623 39.9675 4.43879 36.9364 3.32421 33.2842C1.38326 26.9243 0.150089 20.2256 0.0405452 18.0262C-0.30404 11.1425 1.54917 6.21938 5.54753 3.39516C11.8548 -1.05999 21.4112 1.56003 24.8953 2.74959C27.2362 1.33882 29.9902 0.652304 33.1021 0.701759C34.7735 0.728879 36.365 0.875647 37.8433 1.1394C39.3855 0.654432 42.4314 -0.041652 45.9182 0.00195296C52.3425 0.0785275 57.666 2.58209 61.3124 7.24197C63.9148 10.5666 62.628 17.5481 61.6298 21.4141C60.2249 26.8519 57.7634 32.6354 54.7397 37.6702C55.5608 37.6761 56.7503 37.5777 58.4414 37.2283C61.7777 36.5397 62.7535 38.3286 63.0183 39.1294C64.0792 42.3423 59.4677 44.7704 58.0292 45.4383C56.1861 46.2939 53.1811 46.815 50.7201 46.7023L50.6127 46.6954L49.966 46.6385L49.9022 47.1777L49.8405 47.7047C49.6752 54.0854 48.7637 58.1262 46.8882 60.7962C44.9222 63.5955 42.19 64.3798 39.7832 64.8956C38.9622 65.0711 38.2161 65.1477 37.5397 65.1477ZM32.6528 41.9249C34.1518 43.1246 34.2832 45.3819 34.4007 49.6004C34.4156 50.1269 34.4294 50.6251 34.448 51.0904C34.5044 52.4996 34.6368 55.7992 35.1537 57.1935C35.2265 57.3908 35.2919 57.5908 35.3611 57.8029C35.937 59.5663 36.2257 60.4506 38.716 59.9183C40.8064 59.47 41.8811 59.068 42.7223 57.8705C43.9448 56.1295 44.6287 52.6272 44.7542 47.4611L47.2982 47.5228L44.7717 47.2197L44.8462 46.589C45.0881 44.5098 45.2626 43.0081 46.6521 42.0148C47.7672 41.2182 49.0376 41.2953 50.0495 41.4777C48.9376 40.6375 48.6302 39.6521 48.5484 39.248L48.3362 38.2031L48.9323 37.3187C52.3659 32.2244 55.197 25.9634 56.7009 20.1405C58.2462 14.1576 57.7751 10.9803 57.3039 10.3794C51.0668 2.4098 40.2512 5.70037 39.1217 6.07367L38.9308 6.17683L37.9736 6.35498L37.4833 6.25341C36.1316 5.97264 34.6299 5.81736 33.0202 5.7913C30.4911 5.74876 28.4507 6.34647 26.7778 7.6158L25.617 8.49587L24.27 7.94124C21.3921 6.76444 12.9391 4.39861 8.47863 7.55784C6.00272 9.3116 4.87484 12.7479 5.12584 17.7715C5.20879 19.4301 6.33561 25.7086 8.19466 31.7979C10.7636 40.2131 13.0981 43.0086 14.0728 43.3335C14.243 43.391 14.6844 43.048 15.1236 42.5205C16.9551 40.3251 18.8515 38.1846 20.8103 36.102L22.2833 34.5519L24.0642 35.7351C24.7821 36.2121 25.5739 36.4828 26.387 36.5338L30.6342 32.9114L30.0189 39.1905C30.0051 39.3315 29.9982 39.5234 30.0535 39.8797L30.2385 41.0698L29.4356 41.9674L29.3431 42.0717L31.6764 43.1485L32.6528 41.9249Z" fill="black"/>
<path d="M58.9556 39.7207C51.5512 41.2485 51.0423 38.7412 51.0423 38.7412C58.8609 27.1402 62.1281 12.4134 59.3076 8.80962C51.6129 -1.0217 38.2932 3.62754 38.0709 3.74825L37.9992 3.76102C36.5363 3.45738 34.899 3.27658 33.0585 3.2468C29.7078 3.19203 27.1665 4.12528 25.2378 5.58764C25.2378 5.58764 1.47632 -4.20113 2.58133 17.8986C2.81637 22.6005 9.31988 53.4733 17.0773 44.1482C19.9127 40.7385 22.6518 37.8553 22.6518 37.8553C24.0126 38.7588 25.6414 39.2203 27.3489 39.0544L27.4819 38.9417C27.4404 39.365 27.4595 39.7792 27.535 40.2695C25.5367 42.5024 26.1237 42.8943 22.1286 43.7164C18.0861 44.5492 20.4609 46.0323 22.0116 46.4199C23.8908 46.89 28.2396 47.5558 31.1776 43.4431L31.0601 43.9121C31.8434 44.5396 32.3933 47.9918 32.3013 51.1213C32.2093 54.2507 32.1471 56.3996 32.7644 58.0779C33.3813 59.7561 33.996 63.5317 39.2477 62.4064C43.6359 61.4663 45.9097 59.0292 46.2267 54.9644C46.4511 52.0742 46.9589 52.5017 46.9913 49.9179L47.3992 48.6948C47.8693 44.7773 47.4737 43.5138 50.1777 44.1014L50.8344 44.1589C52.8243 44.2493 55.4284 43.8393 56.9572 43.1288C60.2488 41.6021 62.2009 39.0512 58.9556 39.7207Z" fill="#336791"/>
<path d="M37.8051 63.5795C33.4276 63.5795 32.0407 60.1129 31.4733 58.6952C30.6427 56.6176 30.4635 48.555 30.6485 41.943C30.6513 41.8315 30.6761 41.7216 30.7215 41.6197C30.7669 41.5178 30.832 41.4259 30.913 41.3493C30.9941 41.2727 31.0895 41.2129 31.1938 41.1733C31.2981 41.1337 31.4092 41.1152 31.5206 41.1187C31.632 41.1218 31.7417 41.1467 31.8434 41.1922C31.9451 41.2376 32.0369 41.3027 32.1134 41.3836C32.19 41.4646 32.2498 41.5598 32.2896 41.6639C32.3293 41.768 32.3481 41.8789 32.3449 41.9903C32.1316 49.6164 32.4342 56.5272 33.0489 58.0651C34.0082 60.4628 35.4632 62.5601 39.5764 61.679C43.4811 60.8414 44.9435 59.361 45.5949 55.5849C46.0948 52.6873 47.0833 44.4439 47.2051 42.8172C47.2133 42.706 47.2433 42.5976 47.2934 42.498C47.3435 42.3985 47.4128 42.3098 47.4973 42.2371C47.5818 42.1644 47.6798 42.109 47.7857 42.0743C47.8916 42.0395 48.0033 42.026 48.1144 42.0344C48.3387 42.0514 48.5471 42.1567 48.6939 42.3272C48.8406 42.4977 48.9138 42.7194 48.8972 42.9438C48.7701 44.6374 47.7863 52.8649 47.2673 55.8737C46.4984 60.3336 44.5101 62.3565 39.9321 63.3381C39.1542 63.5045 38.4474 63.579 37.8051 63.5795ZM14.0691 46.6475C13.6865 46.6463 13.3065 46.5835 12.9439 46.4614C10.1005 45.5127 7.39223 40.8821 4.89399 32.6966C2.99239 26.4659 1.7874 19.9624 1.68158 17.8486C1.36837 11.5822 2.98175 7.14891 6.47812 4.67246C13.3948 -0.228302 25.0304 4.43849 25.5223 4.6395C25.7307 4.72461 25.8967 4.88901 25.9839 5.09654C26.071 5.30407 26.0722 5.53773 25.9871 5.7461C25.902 5.95448 25.7375 6.12051 25.53 6.20767C25.3225 6.29483 25.0888 6.29598 24.8805 6.21087C24.7683 6.16514 13.6107 1.6951 7.45551 6.05931C4.46591 8.17894 3.09342 12.1172 3.37579 17.764C3.46459 19.5449 4.59035 25.8921 6.51641 32.201C8.74664 39.5085 11.2848 44.1195 13.4804 44.8517C13.825 44.9666 14.8737 45.316 16.3727 43.5133C18.1208 41.4137 19.9345 39.3697 21.8111 37.3841C21.9681 37.2275 22.1802 37.1386 22.402 37.1364C22.6237 37.1341 22.8376 37.2188 22.9977 37.3723C23.1578 37.5257 23.2515 37.7357 23.2587 37.9574C23.2659 38.1791 23.1861 38.3947 23.0363 38.5583C23.0108 38.5849 20.4588 41.2527 17.6777 44.5986C16.3605 46.1828 15.0981 46.6475 14.0691 46.6475ZM50.9892 39.4979C50.8353 39.4977 50.6845 39.4557 50.5527 39.3764C50.4209 39.297 50.3131 39.1834 50.2409 39.0476C50.1687 38.9117 50.1348 38.7588 50.1427 38.6052C50.1507 38.4516 50.2003 38.303 50.2862 38.1754C58.1898 26.4473 60.9641 12.2762 58.5881 9.23982C55.5975 5.41854 51.3747 3.42281 46.0363 3.30742C42.0837 3.22234 38.942 4.23163 38.4283 4.40765L38.2991 4.46029C37.7827 4.62248 37.3866 4.33958 37.2371 4.00882C37.1519 3.81931 37.139 3.60518 37.2008 3.40682C37.2626 3.20845 37.3949 3.03955 37.5727 2.93199C37.5971 2.91763 37.6748 2.88466 37.8008 2.8384C38.6734 2.51881 41.863 1.56163 45.8135 1.60683C51.7203 1.66958 56.5998 3.94713 59.9234 8.19436C61.4958 10.2039 61.4995 14.8335 59.9335 20.8967C58.3371 27.0785 55.3332 33.7219 51.6927 39.1241C51.53 39.3671 51.262 39.4979 50.9892 39.4979ZM51.3933 44.9272C50.0437 44.9272 48.8339 44.7369 48.1096 44.303C47.3652 43.8568 47.2232 43.2506 47.2046 42.9289C47.0014 39.3607 48.9701 38.7396 49.974 38.4562C49.8342 38.2445 49.6353 37.9957 49.4295 37.7388C48.844 37.0071 48.0421 36.0053 47.4242 34.5067C47.3274 34.2728 47.0243 33.7288 46.6733 33.0986C44.7702 29.6857 40.8101 22.584 43.3541 18.9472C44.5314 17.2642 46.8759 16.6016 50.3303 16.9712C49.3141 13.8752 44.475 4.19068 32.9926 4.00244C29.5393 3.94501 26.7071 5.00695 24.5789 7.15582C19.8143 11.9678 19.9866 20.6744 19.9893 20.7616C19.9922 20.873 19.9732 20.9839 19.9332 21.0879C19.8933 21.1919 19.8333 21.2871 19.7566 21.3679C19.6799 21.4487 19.5881 21.5137 19.4863 21.559C19.3845 21.6043 19.2748 21.6292 19.1634 21.6321C19.052 21.6351 18.9412 21.616 18.8371 21.5761C18.7331 21.5362 18.638 21.4762 18.5571 21.3995C18.4763 21.3228 18.4114 21.2309 18.366 21.1292C18.3207 21.0274 18.2959 20.9177 18.2929 20.8063C18.2823 20.4197 18.1047 11.2829 23.3734 5.96147C25.8392 3.4712 29.0851 2.24176 33.0208 2.3061C40.3666 2.42681 45.0951 6.16141 47.7677 9.27278C50.6813 12.6639 52.1096 16.4043 52.2271 17.6529C52.3149 18.5814 51.6486 18.767 51.514 18.7946L51.2077 18.8015C47.8177 18.2586 45.6428 18.6356 44.7436 19.9204C42.8085 22.6861 46.5548 29.4039 48.1543 32.2728C48.5627 33.0045 48.8573 33.5336 48.9924 33.8601C49.5178 35.1342 50.2032 35.9904 50.7536 36.6785C51.238 37.2836 51.6576 37.8085 51.8076 38.4243C51.8772 38.5466 52.8658 40.0089 58.7317 38.7981C60.202 38.495 61.0837 38.754 61.3533 39.5692C61.8835 41.1724 58.9088 43.0427 57.2619 43.8073C55.7862 44.4933 53.431 44.9272 51.3933 44.9272ZM48.8961 42.789C49.0823 42.9767 50.0134 43.3006 51.9416 43.2176C53.656 43.1442 55.464 42.7715 56.5488 42.2679C57.9362 41.6234 58.8625 40.9028 59.3422 40.4109L59.0763 40.4599C55.3257 41.2341 52.6727 41.131 51.1912 40.153C51.0916 40.0874 50.9957 40.0162 50.9041 39.9398C50.7435 40.0031 50.5951 40.0446 50.4893 40.0743C49.6491 40.3099 48.7802 40.554 48.8961 42.789ZM24.6678 47.5297C23.7361 47.5297 22.7555 47.4026 21.7542 47.1522C20.7167 46.8927 18.9677 46.1115 18.9943 44.8283C19.0246 43.3888 21.1182 42.9571 21.9063 42.7949C24.7534 42.2083 24.939 41.9733 25.8286 40.8433C26.0881 40.5141 26.4109 40.1041 26.8512 39.6128C27.5047 38.8811 28.2189 38.5104 28.974 38.5104C29.4999 38.5104 29.9312 38.6886 30.2162 38.8071C31.1245 39.1836 31.8822 40.094 32.1939 41.1825C32.4752 42.1647 32.3406 43.1102 31.8163 43.8446C30.095 46.2551 27.6228 47.5297 24.6678 47.5297ZM20.8273 44.9012C21.0831 45.099 21.5957 45.3633 22.1663 45.5058C23.0336 45.7228 23.8749 45.8328 24.6683 45.8328C27.0857 45.8328 29.0266 44.8321 30.4364 42.8581C30.7304 42.4466 30.6422 41.9238 30.5635 41.6489C30.3986 41.073 29.9891 40.5492 29.5675 40.3743C29.3388 40.2796 29.149 40.2073 28.9745 40.2073C28.8809 40.2073 28.5959 40.2073 28.1163 40.7438C27.7852 41.1161 27.467 41.4995 27.1623 41.8935C26.0541 43.3006 25.5462 43.7781 22.2493 44.4572C21.4447 44.622 21.0321 44.7901 20.8273 44.9012ZM27.3516 40.9874C27.149 40.9871 26.9533 40.9143 26.7997 40.7823C26.6461 40.6502 26.5448 40.4676 26.514 40.2674C26.4928 40.1265 26.4786 39.9847 26.4715 39.8425C24.3104 39.8021 22.2253 38.8747 20.6423 37.223C18.6407 35.1348 17.7298 32.2414 18.1435 29.2853C18.5928 26.075 18.4248 23.2412 18.3344 21.7188C18.3094 21.2955 18.2913 20.9897 18.2924 20.7781C18.294 20.5096 18.2993 19.7975 20.6795 18.5909C21.5261 18.1618 23.2235 17.4131 25.0777 17.2211C28.1498 16.9036 30.1747 18.2719 30.7809 21.0743C32.4172 28.6403 30.9107 31.9867 29.8105 34.4307C29.6057 34.8859 29.4122 35.3156 29.2574 35.7319L29.1208 36.0989C28.5395 37.6575 28.037 39.0039 28.1912 40.0095C28.2082 40.1196 28.2032 40.232 28.1767 40.3402C28.1502 40.4484 28.1026 40.5504 28.0367 40.6402C27.9708 40.73 27.8878 40.806 27.7925 40.8637C27.6972 40.9215 27.5915 40.9599 27.4813 40.9768L27.3516 40.9874ZM19.9946 21.0131L20.0276 21.6188C20.1211 23.2003 20.2956 26.1431 19.8234 29.5209C19.4825 31.959 20.227 34.3387 21.8669 36.0489C23.1628 37.4006 24.8682 38.1467 26.6209 38.1467H26.6571C26.8533 37.3198 27.1793 36.4466 27.5303 35.5059L27.6659 35.1411C27.8408 34.6711 28.0455 34.2159 28.2625 33.7341C29.3212 31.3815 30.6395 28.4531 29.1213 21.4332C28.8209 20.0427 28.0918 19.2381 26.8937 18.9728C24.4327 18.4293 20.7651 20.2804 19.9946 21.0131ZM25.1155 20.6531C25.073 20.9531 25.6648 21.7539 26.4369 21.8608C27.2075 21.9687 27.8669 21.3423 27.9089 21.0424C27.9509 20.7425 27.3596 20.4117 26.5874 20.3043C25.8153 20.1969 25.1564 20.3532 25.1155 20.6531ZM26.614 22.1559L26.3976 22.141C25.919 22.0745 25.4351 21.773 25.1038 21.3338C24.9873 21.1796 24.7975 20.8807 24.8353 20.6138C24.889 20.2224 25.3665 19.9879 26.1115 19.9879C26.2779 19.9879 26.4513 20.0001 26.6257 20.0246C27.0331 20.081 27.4111 20.1985 27.6903 20.3543C28.1742 20.6244 28.2099 20.9259 28.1881 21.0817C28.1285 21.5141 27.4409 22.1559 26.614 22.1559ZM25.3968 20.7031C25.4207 20.8882 25.8791 21.4986 26.4758 21.5811L26.6145 21.5906C27.1655 21.5906 27.5771 21.1572 27.6254 21.0153C27.5744 20.9185 27.2202 20.6781 26.5486 20.5845C26.404 20.5641 26.2581 20.5536 26.112 20.5532C25.6802 20.5532 25.451 20.6505 25.3968 20.7031ZM48.5845 20.0411C48.6265 20.341 48.0352 21.1418 47.2636 21.2492C46.4925 21.3567 45.8326 20.7308 45.7901 20.4309C45.7497 20.1309 46.341 19.7996 47.1121 19.6928C47.8831 19.5848 48.542 19.7417 48.5845 20.0411ZM47.0855 21.4024C46.3431 21.4024 45.7023 20.8249 45.6497 20.45C45.5885 20.0001 46.3293 19.6582 47.0918 19.5524C47.2599 19.529 47.4263 19.5173 47.5864 19.5173C48.2447 19.5173 48.6808 19.7103 48.7244 20.0219C48.7526 20.2235 48.5978 20.5346 48.3314 20.8153C48.1554 20.9998 47.7858 21.3194 47.2822 21.3891L47.0855 21.4024ZM47.5869 19.8002C47.4394 19.8002 47.2877 19.811 47.1317 19.8326C46.3655 19.9395 45.9081 20.2469 45.9305 20.4117C45.956 20.593 46.4452 21.12 47.086 21.12L47.2439 21.1089C47.6624 21.0509 47.9767 20.7776 48.1267 20.6202C48.3622 20.3729 48.4558 20.14 48.4447 20.0607C48.4298 19.9555 48.1469 19.8002 47.5869 19.8002ZM49.6954 37.265C49.5417 37.2651 49.3908 37.2234 49.259 37.1443C49.1271 37.0653 49.0193 36.9518 48.9469 36.8162C48.8746 36.6806 48.8405 36.5278 48.8483 36.3743C48.8562 36.2207 48.9056 36.0722 48.9913 35.9446C50.7983 33.2459 50.4675 30.494 50.1479 27.8325C50.0112 26.6988 49.8709 25.5263 49.907 24.401C49.9442 23.2434 50.0915 22.2883 50.2335 21.3646C50.4021 20.2703 50.5616 19.2365 50.4957 18.0092C50.4897 17.8979 50.5056 17.7866 50.5427 17.6815C50.5797 17.5765 50.6371 17.4797 50.7115 17.3968C50.7859 17.3139 50.8759 17.2465 50.9764 17.1983C51.0768 17.1502 51.1858 17.1224 51.2971 17.1164C51.4083 17.1103 51.5196 17.1263 51.6247 17.1633C51.7298 17.2004 51.8265 17.2577 51.9095 17.3321C52.0769 17.4824 52.1778 17.6931 52.1899 17.9177C52.2654 19.3205 52.0851 20.4904 51.9107 21.6225C51.7762 22.4962 51.6369 23.3997 51.6034 24.4553C51.5709 25.4518 51.698 26.51 51.8326 27.6299C52.1729 30.46 52.5584 33.6676 50.4016 36.8885C50.3238 37.0044 50.2187 37.0993 50.0955 37.165C49.9724 37.2306 49.8349 37.265 49.6954 37.265Z" fill="white"/>
</svg>
