<svg width="66" height="64" viewBox="0 0 66 64" fill="none" xmlns="http://www.w3.org/2000/svg">
<path d="M54.3322 0H10.8155C4.84228 0 0 4.84228 0 10.8155V52.7035C0 58.6767 4.84228 63.519 10.8155 63.519H54.3322C60.3054 63.519 65.1477 58.6767 65.1477 52.7035V10.8155C65.1477 4.84228 60.3054 0 54.3322 0Z" fill="#001E36"/>
<path d="M14.6694 44.5435V16.617C14.6694 16.4132 14.7569 16.3113 14.9318 16.3111L15.2084 16.3103L15.6813 16.3052L16.3383 16.2923L18.5396 16.2457L20.8999 16.2019C21.7301 16.1875 22.5531 16.1802 23.3689 16.18C25.5829 16.18 27.4476 16.4568 28.963 17.0104C30.3301 17.4725 31.5769 18.2339 32.6123 19.2392C33.4902 20.1104 34.1686 21.1616 34.6008 22.3205C35.0095 23.4482 35.2166 24.639 35.2128 25.8384C35.2128 28.1697 34.6738 30.0926 33.5956 31.6073C32.5412 33.085 31.0706 34.2152 29.3712 34.8535L29.2254 34.907C27.4508 35.5689 25.4857 35.8081 23.3305 35.8231L22.9956 35.8241L22.4986 35.8216L22.2479 35.818L21.9685 35.8114L21.8 35.8048L21.6977 35.7994L21.4461 35.7903L21.1384 35.7839L20.6752 35.7806L20.5722 35.7803V44.4997C20.5798 44.5531 20.5749 44.6076 20.5579 44.6589C20.5408 44.7101 20.512 44.7566 20.4739 44.7948C20.4357 44.833 20.3891 44.8618 20.3379 44.8788C20.2867 44.8959 20.2322 44.9008 20.1787 44.8931H14.9756C14.7713 44.8933 14.6693 44.7767 14.6694 44.5435ZM20.5724 21.5555V30.664C20.9508 30.6933 21.3002 30.7079 21.6209 30.7077H23.0633C24.0578 30.7043 25.0464 30.5563 25.9983 30.2682L26.1881 30.2089C27.0541 29.9519 27.8279 29.4512 28.4171 28.7665C28.9648 28.1206 29.2484 27.2306 29.2681 26.0965L29.2694 25.9695C29.2923 25.1241 29.0724 24.2899 28.6355 23.5659C28.1764 22.8655 27.5126 22.3237 26.7345 22.0143C25.7186 21.6193 24.6334 21.4335 23.544 21.4682L22.9898 21.4697L22.6401 21.4728L22.3065 21.4771L21.8357 21.4863L21.4921 21.4959L21.3137 21.5026L21.0753 21.5138L20.8722 21.5262L20.7564 21.5354L20.6564 21.5451L20.6124 21.5501L20.5724 21.5555ZM52.1105 29.0078C51.3481 28.6161 50.5394 28.3218 49.7036 28.1318L49.5102 28.0901C48.5906 27.8792 47.6519 27.7629 46.7086 27.7432L46.473 27.7404C45.92 27.7254 45.3678 27.7917 44.8341 27.9372C44.4944 28.013 44.1925 28.2064 43.9816 28.4833C43.839 28.7049 43.7633 28.9629 43.7632 29.2264C43.7712 29.4819 43.8633 29.7277 44.0253 29.9254C44.2573 30.1967 44.5362 30.424 44.8486 30.5965L44.9433 30.6466C45.5664 30.9821 46.2084 31.2812 46.8661 31.5424C48.3327 32.0337 49.7342 32.7015 51.0397 33.531C51.929 34.0922 52.665 34.8657 53.1814 35.7819C53.6153 36.6493 53.8328 37.6089 53.8151 38.5786C53.841 39.8594 53.475 41.1175 52.7661 42.1844C52.007 43.2673 50.9526 44.1092 49.7286 44.6096C48.4466 45.1729 46.8725 45.464 45.0061 45.483L44.8122 45.484C43.6552 45.4955 42.4998 45.3943 41.3624 45.1817L41.1191 45.1344C40.1615 44.9588 39.2294 44.6651 38.344 44.2602C38.255 44.2144 38.1797 44.1457 38.1259 44.0611C38.0722 43.9766 38.0419 43.8793 38.0381 43.7793V39.0158C38.0329 38.9696 38.0403 38.9228 38.0596 38.8805C38.0788 38.8381 38.1092 38.8018 38.1475 38.7753C38.185 38.754 38.2281 38.7447 38.2711 38.7486C38.314 38.7525 38.3547 38.7695 38.3878 38.7972C39.4334 39.4137 40.5687 39.8634 41.7528 40.1302C42.7966 40.392 43.8673 40.5313 44.9433 40.5455C45.9627 40.5455 46.7129 40.4144 47.1939 40.1521C47.411 40.0526 47.5946 39.8923 47.7226 39.6907C47.8506 39.489 47.9174 39.2546 47.9151 39.0158C47.9151 38.6375 47.6966 38.2733 47.2596 37.9233C47.0763 37.7768 46.8136 37.6173 46.4714 37.4449L46.3078 37.3645L46.1332 37.2823L46.0416 37.2406L45.8497 37.1556L45.7497 37.1123L45.541 37.0248L45.4324 36.9802L45.2069 36.8899L45.0898 36.8441L44.8473 36.7507L44.5936 36.6558C43.2211 36.1785 41.9199 35.5169 40.7257 34.6891C39.8714 34.0951 39.168 33.3093 38.6718 32.3947C38.2422 31.5335 38.0249 30.5819 38.0381 29.6196C38.0354 28.4632 38.353 27.3287 38.9558 26.3418C39.6429 25.2552 40.6293 24.3899 41.7966 23.8509C43.0783 23.2103 44.6807 22.8897 46.6038 22.8892C47.7301 22.8802 48.8554 22.9606 49.969 23.1297C50.7754 23.2321 51.5638 23.4453 52.3118 23.7634C52.4322 23.798 52.5291 23.8868 52.5739 24.0039C52.6037 24.1105 52.6182 24.2207 52.6177 24.3316V28.7457C52.6241 28.85 52.5739 28.95 52.4866 29.0078C52.4282 29.0368 52.3638 29.0519 52.2986 29.0519C52.2333 29.0519 52.169 29.0368 52.1105 29.0078Z" fill="#31A8FF"/>
</svg>
