<svg width="66" height="66" viewBox="0 0 66 66" fill="none" xmlns="http://www.w3.org/2000/svg">
<path d="M25.603 0C23.1323 0 20.7627 0.981517 19.0156 2.72863C17.2684 4.47574 16.2869 6.84533 16.2869 9.31612V14.7885H30.2611C31.5315 14.7885 32.5738 16.6452 32.5738 17.9156H9.31612C6.84533 17.9156 4.47574 18.8971 2.72863 20.6442C0.981517 22.3914 0 24.761 0 27.2317V39.5479C0 42.0187 0.981517 44.3883 2.72863 46.1354C4.47574 47.8825 6.84533 48.864 9.31612 48.864H13.1598V40.1342C13.1555 38.9124 13.3925 37.7017 13.8571 36.5716C14.3218 35.4415 15.0049 34.4142 15.8674 33.5487C16.7299 32.6832 17.7547 31.9965 18.8832 31.5279C20.0116 31.0593 21.2215 30.8181 22.4434 30.8181H39.5447C44.6913 30.8181 48.8608 26.678 48.8608 21.5313V9.31612C48.8608 6.84533 47.8793 4.47574 46.1321 2.72863C44.385 0.981517 42.0154 0 39.5447 0H25.603ZM23.2577 5.24439C24.5607 5.24439 25.603 5.63528 25.603 7.55713C25.603 9.47899 24.5607 10.4595 23.2577 10.4595C21.9873 10.4595 20.945 9.48225 20.945 7.56039C20.945 5.63853 21.9873 5.24439 23.2577 5.24439Z" fill="#0288D1"/>
<path d="M51.9846 16.2869V25.0167C51.9885 26.2383 51.7512 27.4487 51.2864 28.5784C50.8216 29.7081 50.1383 30.735 49.2759 31.6001C48.4135 32.4653 47.3887 33.1517 46.2605 33.6201C45.1323 34.0885 43.9227 34.3296 42.7011 34.3296H25.603C24.3812 34.3253 23.1705 34.5623 22.0404 35.0269C20.9103 35.4915 19.883 36.1746 19.0175 37.0371C18.152 37.8996 17.4653 38.9245 16.9967 40.0529C16.5281 41.1814 16.2869 42.3913 16.2869 43.6131V55.8283C16.2869 58.2991 17.2684 60.6687 19.0156 62.4158C20.7627 64.1629 23.1323 65.1444 25.603 65.1444H39.5447C42.0149 65.1444 44.384 64.1634 46.131 62.417C47.878 60.6706 48.8599 58.3018 48.8608 55.8316V50.3592H34.8833C33.613 50.3592 32.5738 48.5025 32.5738 47.2321H55.8316C58.3024 47.2321 60.672 46.2506 62.4191 44.5035C64.1662 42.7563 65.1477 40.3868 65.1477 37.916V25.603C65.1477 23.1323 64.1662 20.7627 62.4191 19.0156C60.672 17.2684 58.3024 16.2869 55.8316 16.2869H51.9846ZM20.5867 30.9875L20.5736 31.0005L20.6974 30.9875H20.5867ZM41.89 54.6882C43.1603 54.6882 44.2027 55.6655 44.2027 57.5873C44.2027 57.891 44.1429 58.1918 44.0267 58.4724C43.9104 58.753 43.7401 59.0079 43.5253 59.2227C43.3106 59.4374 43.0556 59.6078 42.775 59.724C42.4944 59.8402 42.1937 59.9001 41.89 59.9001C40.587 59.9001 39.5447 59.5092 39.5447 57.5873C39.5447 55.6655 40.587 54.6882 41.89 54.6882Z" fill="#FDD835"/>
</svg>
