<svg width="66" height="59" viewBox="0 0 66 59" fill="none" xmlns="http://www.w3.org/2000/svg">
<path d="M32.5727 19.761C49.8921 19.761 60.4922 25.7869 60.4922 29.0674C60.4922 32.348 49.8921 38.3739 32.5727 38.3739C15.2533 38.3739 4.65324 32.348 4.65324 29.0674C4.65324 25.7869 15.2533 19.761 32.5727 19.761ZM32.5727 15.1077C14.5833 15.1077 0 21.357 0 29.0674C0 36.7779 14.5833 43.0272 32.5727 43.0272C50.5621 43.0272 65.1454 36.7779 65.1454 29.0674C65.1454 21.357 50.5621 15.1077 32.5727 15.1077Z" fill="#00BCD4"/>
<path d="M32.5727 24.4142C31.6524 24.4142 30.7527 24.6871 29.9875 25.1984C29.2223 25.7097 28.6259 26.4365 28.2737 27.2867C27.9215 28.137 27.8293 29.0726 28.0089 29.9752C28.1884 30.8779 28.6316 31.707 29.2824 32.3578C29.9331 33.0086 30.7623 33.4517 31.6649 33.6313C32.5675 33.8108 33.5032 33.7187 34.3534 33.3665C35.2037 33.0143 35.9304 32.4179 36.4417 31.6526C36.953 30.8874 37.226 29.9878 37.226 29.0674C37.226 27.8333 36.7357 26.6498 35.863 25.7771C34.9904 24.9045 33.8068 24.4142 32.5727 24.4142Z" fill="#00BCD4"/>
<path d="M19.6786 4.6542C24.3714 4.6542 33.4917 12.0459 40.6321 24.4142C49.2918 39.4139 49.3732 51.6054 46.5324 53.2457C46.2047 53.4156 45.8379 53.4959 45.4692 53.4784C40.7764 53.4784 31.6537 46.089 24.5133 33.7207C15.8536 18.721 15.7722 6.52945 18.613 4.88918C18.9414 4.71886 19.3091 4.63626 19.6786 4.6542ZM19.6762 0.00327856C18.4905 -0.0181768 17.3204 0.276547 16.2864 0.857149C9.60895 4.71236 11.4889 20.4682 20.4836 36.0473C28.1242 49.2858 38.4451 58.1339 45.4715 58.1339C46.6569 58.1536 47.8261 57.8572 48.8591 57.2754C55.5365 53.4225 53.6566 37.6666 44.6618 22.0876C37.0212 8.8491 26.7003 0.000952106 19.6739 0.000952106L19.6762 0.00327856Z" fill="#00BCD4"/>
<path d="M45.4692 4.6542C45.8379 4.63667 46.2047 4.71694 46.5324 4.88686C49.3732 6.52945 49.2918 18.721 40.6321 33.7207C33.4894 46.089 24.369 53.4807 19.6762 53.4807C19.3075 53.4982 18.9407 53.4179 18.613 53.248C15.7722 51.6031 15.8536 39.4116 24.5133 24.4142C31.656 12.0459 40.7764 4.6542 45.4692 4.6542ZM45.4692 0.000952719C38.4428 0.000952719 28.1242 8.85142 20.4813 22.0876C11.4912 37.6666 9.60895 53.4225 16.2864 57.2754C17.32 57.8576 18.4901 58.154 19.6762 58.1339C26.7026 58.1339 37.0212 49.2835 44.6642 36.0473C53.6542 20.4682 55.5365 4.71236 48.8591 0.859476C47.8254 0.277252 46.6553 -0.0190842 45.4692 0.000952719Z" fill="#00BCD4"/>
</svg>
