<svg width="59" height="59" viewBox="0 0 59 59" fill="none" xmlns="http://www.w3.org/2000/svg">
<path d="M14.6348 0C6.55221 0 0 6.55221 0 14.6348C0 22.7174 6.55221 29.2695 14.6348 29.2695C6.55221 29.2695 0 35.8216 0 43.9043C0 51.987 6.55221 58.5391 14.6348 58.5391C22.7174 58.5391 29.2695 51.987 29.2695 43.9043C29.2695 51.987 35.8216 58.5391 43.9043 58.5391C51.987 58.5391 58.5391 51.987 58.5391 43.9043C58.5391 35.8216 51.987 29.2695 43.9043 29.2695C51.987 29.2695 58.5391 22.7174 58.5391 14.6348C58.5391 6.55221 51.987 0 43.9043 0C35.8216 0 29.2695 6.55221 29.2695 14.6348C29.2695 6.55221 22.7174 0 14.6348 0Z" fill="#93A2A3"/>
</svg>
