<svg width="66" height="40" viewBox="0 0 66 40" fill="none" xmlns="http://www.w3.org/2000/svg">
<path d="M32.5727 0C23.8865 0 18.4596 4.34133 16.2864 13.0276C19.5426 8.68572 23.3439 7.05759 27.6858 8.14318C30.1649 8.76104 31.9365 10.5586 33.8985 12.5507C37.0917 15.7911 40.7876 19.5426 48.8591 19.5426C57.5448 19.5426 62.9722 15.2008 65.1454 6.51251C61.8881 10.8566 58.0882 12.4855 53.7455 11.3994C51.2669 10.7811 49.4973 8.98396 47.5327 6.99194C44.3416 3.75146 40.6467 0 32.5727 0ZM16.2864 19.5426C7.60064 19.5426 2.17321 23.8844 0 32.5727C3.25693 28.2287 7.05674 26.5997 11.3994 27.6858C13.8785 28.3042 15.6502 30.1013 17.6122 32.0933C20.8053 35.3338 24.5013 39.0852 32.5727 39.0852C41.2584 39.0852 46.6859 34.7439 48.8591 26.0577C45.6018 30.3997 41.8018 32.0278 37.4591 30.942C34.9805 30.3242 33.2109 28.5266 31.2464 26.5345C28.0553 23.2941 24.3603 19.5426 16.2864 19.5426Z" fill="#38BDF8"/>
</svg>
