<svg width="66" height="66" viewBox="0 0 66 66" fill="none" xmlns="http://www.w3.org/2000/svg">
<path d="M11.033 23.7598H62.9774V62.1539H11.033V23.7598Z" fill="white"/>
<path d="M0 65.1454H65.1454V0H0V65.1454ZM52.4968 29.9669C54.0571 30.329 55.4752 31.145 56.5723 32.3121C57.1762 32.941 57.7012 33.641 58.1358 34.3968C58.1358 34.4802 55.3215 36.3824 53.6069 37.4456C53.5443 37.4873 53.2942 37.2163 53.018 36.8046C52.7049 36.2645 52.2602 35.8125 51.7252 35.4908C51.1903 35.169 50.5825 34.9881 49.9587 34.9649C47.9835 34.8293 46.7119 35.8665 46.7223 37.5707C46.7065 37.9949 46.8036 38.4158 47.0037 38.7902C47.4363 39.6918 48.2441 40.2286 50.7769 41.323C55.4414 43.3295 57.4374 44.6533 58.6778 46.5347C60.0641 48.6193 60.3716 51.986 59.4335 54.4772C58.3911 57.1873 55.8374 59.027 52.2258 59.6367C50.5762 59.8258 48.9095 59.8083 47.2643 59.5846C44.7427 59.169 42.42 57.9583 40.6351 56.1293C40.0358 55.4674 38.8684 53.7424 38.9413 53.6173C39.1312 53.4755 39.3316 53.3483 39.5407 53.2368L41.9537 51.9027L43.8246 50.8186L44.2155 51.3971C44.8754 52.3406 45.7148 53.1446 46.6858 53.7632C48.7705 54.8577 51.616 54.7065 53.0232 53.4401C53.4956 52.976 53.7903 52.361 53.8561 51.702C53.9218 51.043 53.7543 50.3819 53.3828 49.8336C52.8616 49.1092 51.8193 48.4995 48.906 47.2278C45.5445 45.779 44.0956 44.8826 42.7719 43.4546C41.9458 42.5121 41.3357 41.4004 40.9843 40.1973C40.7224 38.8227 40.6837 37.4149 40.8696 36.028C41.5628 32.7812 43.9966 30.5141 47.5509 29.8418C49.197 29.6385 50.8643 29.6841 52.4968 29.9773V29.9669ZM37.2059 32.6978V35.3661H28.7474V59.4595H22.7488V35.3609H14.2695V32.7551C14.2429 31.8565 14.2637 30.9571 14.332 30.0607C14.3737 30.0138 19.5436 30.0138 25.7976 30.0138H37.1746L37.2059 32.6978Z" fill="#007ACC"/>
</svg>
